<svg width="38" height="38" viewBox="0 0 38 38" fill="none" xmlns="http://www.w3.org/2000/svg">
<path d="M20.1875 10.6875H17.8125V17.8125H10.6875V20.1875H17.8125V27.3125H20.1875V20.1875H27.3125V17.8125H20.1875V10.6875Z" fill="#342B72"/>
<path d="M19 2.375C9.81944 2.375 2.375 9.81944 2.375 19C2.375 28.1806 9.81944 35.625 19 35.625C28.1806 35.625 35.625 28.1806 35.625 19C35.625 9.81944 28.1806 2.375 19 2.375ZM19 33.25C11.1423 33.25 4.75 26.8577 4.75 19C4.75 11.1423 11.1423 4.75 19 4.75C26.8577 4.75 33.25 11.1423 33.25 19C33.25 26.8577 26.8577 33.25 19 33.25Z" fill="#342B72"/>
</svg>
