<svg width="21" height="21" viewBox="0 0 21 21" fill="none" xmlns="http://www.w3.org/2000/svg">
<path d="M13.5584 2.21987L13.5584 2.21987L11.7099 5.74269C11.5786 5.99293 11.6824 6.29778 11.9386 6.42387C12.194 6.54954 12.5073 6.45155 12.6381 6.20227L14.4864 2.67961C14.4864 2.6796 14.4864 2.6796 14.4864 2.67959C14.9034 1.88562 14.3063 0.95 13.3928 0.95H7.60752C6.69418 0.95 6.09707 1.88545 6.51366 2.67955L6.51366 2.67955L8.36232 6.2023C8.49312 6.45155 8.80639 6.54954 9.06177 6.42384C9.31798 6.29773 9.42173 5.99288 9.2904 5.74266L9.27635 5.7159H9.27633L7.44177 2.21999C7.44177 2.21999 7.44177 2.21999 7.44177 2.21998C7.38092 2.10401 7.46658 1.96196 7.6075 1.96196H13.3928C13.5337 1.96196 13.6193 2.10388 13.5584 2.21987Z" fill="#A6A2C2" stroke="#A6A2C2" stroke-width="0.1"/>
<path d="M19.0643 15.1167C19.0643 17.296 17.3021 19.0624 15.1285 19.0624H5.87151C3.69802 19.0624 1.93573 17.2959 1.93573 15.1167V14.1813C1.93573 9.9367 5.40204 6.462 9.63586 6.462H11.3641C15.598 6.462 19.0643 9.9367 19.0643 14.1813V15.1167ZM5.87151 20.0503H15.1285C17.8468 20.0503 20.05 17.8414 20.05 15.1167V14.1813C20.05 9.39131 16.1426 5.47408 11.3641 5.47408H9.63586C4.85739 5.47408 0.95 9.39131 0.95 14.1813V15.1167C0.95 17.8413 3.1534 20.0503 5.87151 20.0503Z" fill="#A6A2C2" stroke="#A6A2C2" stroke-width="0.1"/>
<path d="M10.5 11.9844V9.31257L7.82812 9.3125" stroke="#A6A2C2" stroke-linecap="round" stroke-linejoin="round"/>
<path d="M6.34373 13.4688L10.2471 9.77412" stroke="#A6A2C2" stroke-linecap="round" stroke-linejoin="round"/>
<path d="M9.94141 13.6606V16.3324L12.6133 16.3324" stroke="#A6A2C2" stroke-linecap="round" stroke-linejoin="round"/>
<path d="M14.0977 12.1762L10.1943 15.8708" stroke="#A6A2C2" stroke-linecap="round" stroke-linejoin="round"/>
</svg>
