<svg width="21" height="20" viewBox="0 0 21 20" fill="none" xmlns="http://www.w3.org/2000/svg">
<path d="M3.33789 4.16699H13.3504" stroke="#928EAE" stroke-width="1.5" stroke-linecap="round"/>
<path d="M3.33789 10H8.34415" stroke="#928EAE" stroke-width="1.5" stroke-linecap="round"/>
<path d="M11.6816 10H16.6879" stroke="#928EAE" stroke-width="1.5" stroke-linecap="round"/>
<path d="M6.6748 15.833H16.6873" stroke="#928EAE" stroke-width="1.5" stroke-linecap="round"/>
<path d="M15.0184 5.83333C15.94 5.83333 16.6871 5.08714 16.6871 4.16667C16.6871 3.24619 15.94 2.5 15.0184 2.5C14.0967 2.5 13.3496 3.24619 13.3496 4.16667C13.3496 5.08714 14.0967 5.83333 15.0184 5.83333Z" stroke="#928EAE" stroke-width="1.5" stroke-linecap="round"/>
<path d="M10.0125 11.6663C10.9341 11.6663 11.6813 10.9201 11.6813 9.99967C11.6813 9.0792 10.9341 8.33301 10.0125 8.33301C9.09088 8.33301 8.34375 9.0792 8.34375 9.99967C8.34375 10.9201 9.09088 11.6663 10.0125 11.6663Z" stroke="#928EAE" stroke-width="1.5" stroke-linecap="round"/>
<path d="M5.00664 17.5003C5.92827 17.5003 6.67539 16.7541 6.67539 15.8337C6.67539 14.9132 5.92827 14.167 5.00664 14.167C4.08502 14.167 3.33789 14.9132 3.33789 15.8337C3.33789 16.7541 4.08502 17.5003 5.00664 17.5003Z" stroke="#928EAE" stroke-width="1.5" stroke-linecap="round"/>
</svg>
