<svg width="21" height="21" viewBox="0 0 21 21" fill="none" xmlns="http://www.w3.org/2000/svg">
<path d="M5.34186 1.03445L5.34186 1.03445C5.52112 0.855185 5.81176 0.855185 5.99102 1.03445L7.99884 3.04227C8.63242 3.67586 9.06791 4.44975 9.25662 5.28092C9.41388 5.97361 9.38424 6.67383 9.17341 7.28918L10.8592 8.7592L12.0829 7.69685C11.8585 7.10597 11.799 6.44224 11.9154 5.79151C12.0575 4.99643 12.4421 4.26723 13.0266 3.6828L13.9487 2.76063C14.327 2.38235 14.7658 2.08788 15.2526 1.8858C15.7244 1.69 16.217 1.59049 16.7164 1.59049C17.6337 1.59049 18.4832 1.93248 19.1064 2.5557C19.4433 2.89259 19.6978 3.29273 19.8626 3.74438C20.0205 4.17719 20.0894 4.63786 20.0678 5.1131C20.0237 6.08265 19.6088 7.00594 18.9015 7.71333L17.9793 8.63554C17.601 9.01378 17.1623 9.30822 16.6755 9.51028C16.2038 9.70603 15.7113 9.80553 15.212 9.80553H15.212H15.2119H15.2119H15.2119H15.2119H15.2119H15.2119H15.2119H15.2119H15.2119H15.2119H15.2119H15.2119H15.2119H15.2118C14.7811 9.80551 14.3564 9.72808 13.9653 9.57934L13.0322 10.654L19.2196 16.0493L19.1539 16.1247L19.2196 16.0493L19.2262 16.0552L5.34186 1.03445ZM5.34186 1.03445C5.1626 1.21371 5.1626 1.50434 5.34186 1.6836L5.41257 1.61289L5.34186 1.6836L7.34968 3.69143C8.37161 4.71336 8.71342 6.168 8.21084 7.22274C8.12225 7.40865 8.16834 7.63081 8.32354 7.76616L8.38927 7.69079M5.34186 1.03445L8.38927 7.69079M8.38927 7.69079L8.32355 7.76616L10.1593 9.36689M8.38927 7.69079L10.1593 9.36689M10.1593 9.36689L9.31918 10.0962L7.77008 8.31965C7.63473 8.16443 7.41257 8.11834 7.22664 8.20694C6.17193 8.70954 4.71727 8.36777 3.69533 7.34584L1.68751 5.338C1.50825 5.15874 1.21761 5.15874 1.03835 5.338C0.859092 5.51725 0.859092 5.80789 1.03834 5.98715L1.03835 5.98715L3.04617 7.99501L3.11688 7.9243L3.04617 7.99501C3.67976 8.62859 4.45366 9.06407 5.28483 9.25276C5.97751 9.41002 6.67774 9.38036 7.29309 9.16952L8.62593 10.6981L2.34421 16.1516L2.33874 16.1565L2.33864 16.1566C1.87643 16.5711 1.61179 17.1367 1.59519 17.7483C1.5786 18.3598 1.81214 18.9389 2.25119 19.3779L2.3219 19.3072L2.2512 19.3779L2.28429 19.411C2.7073 19.834 3.26505 20.0677 3.85432 20.0677C4.48006 20.0677 5.08167 19.7961 5.50556 19.3235M10.1593 9.36689L5.50556 19.3235M5.50556 19.3235L5.50549 19.3236L5.43112 19.2567L5.50556 19.3235ZM5.50556 19.3235L5.51047 19.3179L10.8148 13.2082M5.50556 19.3235L10.8148 13.2082M10.8148 13.2082L16.0532 19.2157L16.0532 19.2157L16.0591 19.2223L10.8148 13.2082ZM19.4178 19.4468L19.4177 19.4469C19.0159 19.8487 18.4786 20.0677 17.9014 20.0677C17.8826 20.0677 17.8639 20.0675 17.8451 20.067C17.1799 20.0507 16.5297 19.7416 16.0591 19.2223L19.4178 19.4468ZM19.4178 19.4468L19.4508 19.4138M19.4178 19.4468L19.4508 19.4138M2.93339 18.7618L2.93341 18.7618C3.18426 19.0127 3.51121 19.1497 3.85432 19.1497C4.22285 19.1497 4.56527 18.9955 4.81988 18.713C4.82008 18.7128 4.82028 18.7126 4.82048 18.7124L13.4943 8.72141L13.5698 8.78697L13.4943 8.72141C13.633 8.5617 13.8628 8.51739 14.0509 8.61416C14.3977 8.79254 14.7991 8.88746 15.2119 8.88748C15.9839 8.8875 16.7566 8.55987 17.3301 7.98638L18.2523 7.06418C19.3797 5.93672 19.458 4.20565 18.4572 3.20485C18.0093 2.75687 17.3919 2.50854 16.7164 2.50854C15.9443 2.50854 15.1715 2.83622 14.5979 3.40978L13.6757 4.33196L13.605 4.26125L13.6757 4.33196C12.7722 5.23547 12.5203 6.58555 13.048 7.61119C13.1448 7.79928 13.1005 8.02915 12.9408 8.16783L9.57813 11.0872L9.57798 11.0873L9.57599 11.0891L9.57595 11.0891L9.57337 11.0913L9.57274 11.0918L9.57223 11.0923L2.93339 18.7618ZM2.93339 18.7618L2.9003 18.7287M2.93339 18.7618L2.9003 18.7287M19.4508 19.4138C19.8657 18.9989 20.0856 18.4397 20.0709 17.8412C20.0546 17.1761 19.7455 16.526 19.2263 16.0553L19.4508 19.4138ZM2.9003 18.7287C2.9003 18.7287 2.90029 18.7287 2.90029 18.7287M2.9003 18.7287L2.90029 18.7287M2.90029 18.7287C2.64002 18.4684 2.50324 18.1293 2.5129 17.7732M2.90029 18.7287L2.5129 17.7732M2.5129 17.7732C2.52254 17.4181 2.6766 17.0879 2.94901 16.8423L2.5129 17.7732ZM18.8016 18.7647L18.8015 18.7647L18.7685 18.7978C18.7685 18.7978 18.7685 18.7978 18.7685 18.7978C18.534 19.0323 18.2149 19.1578 17.8676 19.1492C17.4583 19.1392 17.0473 18.9441 16.742 18.6088C16.7418 18.6085 16.7416 18.6083 16.7414 18.608L11.4225 12.5082L12.4304 11.3473L18.6119 16.7375C18.6122 16.7377 18.6124 16.7379 18.6127 16.7382C18.948 17.0435 19.1431 17.4545 19.1531 17.8637C19.1617 18.211 19.0362 18.5301 18.8016 18.7647Z" fill="#ABA6C9" stroke="#ABA6C9" stroke-width="0.2"/>
<path d="M1.90508 3.33508L1.90508 3.33508C1.71993 3.52025 1.71991 3.82046 1.90508 4.00563L4.89573 6.99628C4.98829 7.08884 5.10981 7.13516 5.231 7.13516C5.3522 7.13516 5.47372 7.08884 5.56628 6.99628L5.49557 6.92557L5.56628 6.99628C5.75144 6.81111 5.75144 6.5109 5.56628 6.32573L5.49557 6.39644L5.56628 6.32573L2.57564 3.33508C2.39047 3.14991 2.09025 3.14991 1.90508 3.33508ZM6.3298 5.56224C6.42237 5.6548 6.54389 5.70111 6.66508 5.70111C6.78627 5.70111 6.90779 5.6548 7.00035 5.56224C7.18552 5.37707 7.18552 5.07685 7.00035 4.89169L4.00968 1.90101C3.82451 1.71584 3.5243 1.71585 3.33913 1.90101C3.15396 2.08618 3.15396 2.3864 3.33913 2.57156L6.3298 5.56224Z" fill="#ABA6C9" stroke="#ABA6C9" stroke-width="0.2"/>
</svg>
