<svg width="43" height="44" viewBox="0 0 43 44" fill="none" xmlns="http://www.w3.org/2000/svg">
<mask id="path-1-outside-1_542_1604" maskUnits="userSpaceOnUse" x="-0.496094" y="2.25089" width="44" height="39" fill="black">
<rect fill="white" x="-0.496094" y="2.25089" width="44" height="39"/>
<path d="M5.94349 39.9269H25.6875C28.687 39.9269 31.1273 37.4866 31.1273 34.4874V31.6648L38.376 18.8823L38.5351 18.9725C39.0324 19.254 39.6667 19.08 39.9498 18.5813L41.3625 16.09C41.4303 15.9717 41.4738 15.841 41.4907 15.7057C41.5075 15.5703 41.4973 15.433 41.4606 15.3016C41.4247 15.17 41.363 15.0469 41.2792 14.9393C41.1953 14.8317 41.091 14.7418 40.9721 14.6749L40.813 14.5846L42.3145 11.9371C42.6909 11.2733 42.4569 10.427 41.7931 10.0503L38.3321 8.08805C37.6486 7.70189 36.8137 7.96039 36.4454 8.60951L34.9444 11.2568L34.7851 11.1664C34.2881 10.8842 33.653 11.0598 33.3704 11.5576L31.9572 14.0498C31.6754 14.547 31.8507 15.1819 32.3484 15.4645L32.5072 15.5545L31.1275 17.9876V10.7741C31.1275 7.77462 28.6872 5.33429 25.6877 5.33429H25.2073V3.66258C25.2073 3.43506 25.0232 3.25089 24.7956 3.25089C24.568 3.25089 24.3839 3.43498 24.3839 3.66258V5.3342H19.2206V3.66258C19.2206 3.60851 19.21 3.55496 19.1893 3.505C19.1686 3.45504 19.1383 3.40965 19.1 3.37142C19.0618 3.33318 19.0164 3.30286 18.9665 3.28218C18.9165 3.2615 18.863 3.25086 18.8089 3.25089C18.7548 3.25086 18.7013 3.2615 18.6513 3.28218C18.6014 3.30286 18.556 3.33318 18.5177 3.37142C18.4795 3.40965 18.4492 3.45504 18.4285 3.505C18.4078 3.55496 18.3972 3.60851 18.3972 3.66258V5.3342H13.234V3.66258C13.234 3.60851 13.2234 3.55496 13.2027 3.505C13.182 3.45504 13.1517 3.40965 13.1135 3.37142C13.0752 3.33318 13.0298 3.30286 12.9799 3.28218C12.9299 3.2615 12.8764 3.25086 12.8223 3.25089C12.7682 3.25086 12.7147 3.2615 12.6647 3.28218C12.6148 3.30286 12.5694 3.33318 12.5312 3.37142C12.4929 3.40965 12.4626 3.45504 12.4419 3.505C12.4212 3.55496 12.4106 3.60851 12.4106 3.66258V5.3342H7.24752V3.66258C7.24754 3.60851 7.2369 3.55496 7.21622 3.505C7.19554 3.45504 7.16522 3.40965 7.12698 3.37142C7.08875 3.33318 7.04336 3.30286 6.9934 3.28218C6.94344 3.2615 6.88989 3.25086 6.83582 3.25089C6.78175 3.25086 6.72821 3.2615 6.67825 3.28218C6.62829 3.30286 6.5829 3.33318 6.54467 3.37142C6.50643 3.40965 6.47611 3.45504 6.45543 3.505C6.43474 3.55496 6.42411 3.60851 6.42413 3.66258V5.3342H5.94349C2.94416 5.3342 0.503906 7.77445 0.503906 10.774V34.4874C0.503906 37.4865 2.94424 39.9269 5.94349 39.9269ZM25.4279 33.5166L26.5973 34.1799L25.2852 35.1314L25.4279 33.5166ZM27.3298 33.6486L25.5074 32.6152L25.7775 29.5564L29.815 31.8458L27.3298 33.6486ZM30.4206 31.2416L28.562 30.1876L35.8009 17.4222L37.6598 18.4762L30.4206 31.2416ZM35.6606 11.6628L37.1617 9.01549C37.2351 8.88618 37.3569 8.79131 37.5002 8.75173C37.6435 8.71215 37.7967 8.73111 37.926 8.80444L41.387 10.7667C41.6557 10.9193 41.7515 11.2608 41.598 11.531L40.0965 14.1783L35.6606 11.6628ZM32.6735 14.4553L34.0862 11.964C34.1145 11.9145 34.1611 11.8782 34.2161 11.863C34.271 11.8478 34.3297 11.8549 34.3793 11.8828C41.1841 15.7417 29.5957 9.17061 40.5661 15.3912C40.616 15.4194 40.6518 15.4652 40.6671 15.5207C40.6747 15.5478 40.6768 15.5762 40.6733 15.6042C40.6697 15.6321 40.6607 15.6591 40.6466 15.6835L39.2335 18.1752C39.2054 18.2247 39.1588 18.2609 39.104 18.2761C39.0493 18.2912 38.9907 18.284 38.9412 18.256L38.4254 17.9635C38.425 17.9632 38.4246 17.9628 38.4243 17.9625L33.2715 15.041L33.2705 15.0407L32.7549 14.7483C32.7053 14.7202 32.6689 14.6736 32.6536 14.6187C32.6384 14.5637 32.6455 14.505 32.6735 14.4553ZM35.0846 17.0159L27.8458 29.7814L25.9848 28.726L33.2235 15.9607L35.0846 17.0159ZM1.32729 10.774C1.32729 8.22839 3.39809 6.15758 5.94357 6.15758H6.42422V8.30641C6.42419 8.36048 6.43483 8.41402 6.45551 8.46398C6.47619 8.51394 6.50652 8.55933 6.54475 8.59757C6.58298 8.6358 6.62838 8.66612 6.67833 8.68681C6.72829 8.70749 6.78184 8.71812 6.83591 8.7181C6.88998 8.71812 6.94352 8.70749 6.99348 8.68681C7.04344 8.66612 7.08883 8.6358 7.12707 8.59757C7.1653 8.55933 7.19562 8.51394 7.21631 8.46398C7.23699 8.41402 7.24762 8.36048 7.2476 8.30641V6.15758H12.4108V8.30641C12.4108 8.36048 12.4214 8.41402 12.4421 8.46398C12.4628 8.51394 12.4931 8.55933 12.5313 8.59757C12.5696 8.6358 12.6149 8.66612 12.6649 8.68681C12.7149 8.70749 12.7684 8.71812 12.8225 8.7181C12.8766 8.71812 12.9301 8.70749 12.9801 8.68681C13.03 8.66612 13.0754 8.6358 13.1136 8.59757C13.1519 8.55933 13.1822 8.51394 13.2029 8.46398C13.2236 8.41402 13.2342 8.36048 13.2342 8.30641V6.15758H18.3974V8.30641C18.3973 8.36048 18.408 8.41402 18.4287 8.46398C18.4493 8.51394 18.4797 8.55933 18.5179 8.59757C18.5561 8.6358 18.6015 8.66612 18.6515 8.68681C18.7014 8.70749 18.755 8.71812 18.8091 8.7181C18.8631 8.71812 18.9167 8.70749 18.9666 8.68681C19.0166 8.66612 19.062 8.6358 19.1002 8.59757C19.1384 8.55933 19.1688 8.51394 19.1895 8.46398C19.2101 8.41402 19.2208 8.36048 19.2207 8.30641V6.15758H24.3839V8.30641C24.3839 8.53392 24.568 8.7181 24.7956 8.7181C25.0232 8.7181 25.2073 8.53401 25.2073 8.30641V6.15758H25.6877C28.2334 6.15758 30.3042 8.22839 30.3042 10.774V13.9215H1.32729V10.774ZM1.32729 14.7448H30.304V19.4395L25.0648 28.679C25.0478 28.7092 25.0181 28.8095 25.015 28.8392C25.0105 28.8817 24.3881 35.918 24.3854 35.9593C24.3785 36.0379 24.3943 36.1169 24.431 36.1868C24.4677 36.2567 24.5238 36.3145 24.5924 36.3535C24.6611 36.3924 24.7395 36.4108 24.8183 36.4064C24.8972 36.402 24.9731 36.375 25.037 36.3287L30.3039 32.5081V34.4874C30.3039 37.0327 28.2331 39.1035 25.6875 39.1035H5.94349C3.39809 39.1035 1.32721 37.0327 1.32721 34.4874L1.32729 14.7448Z"/>
</mask>
<path d="M5.94349 39.9269H25.6875C28.687 39.9269 31.1273 37.4866 31.1273 34.4874V31.6648L38.376 18.8823L38.5351 18.9725C39.0324 19.254 39.6667 19.08 39.9498 18.5813L41.3625 16.09C41.4303 15.9717 41.4738 15.841 41.4907 15.7057C41.5075 15.5703 41.4973 15.433 41.4606 15.3016C41.4247 15.17 41.363 15.0469 41.2792 14.9393C41.1953 14.8317 41.091 14.7418 40.9721 14.6749L40.813 14.5846L42.3145 11.9371C42.6909 11.2733 42.4569 10.427 41.7931 10.0503L38.3321 8.08805C37.6486 7.70189 36.8137 7.96039 36.4454 8.60951L34.9444 11.2568L34.7851 11.1664C34.2881 10.8842 33.653 11.0598 33.3704 11.5576L31.9572 14.0498C31.6754 14.547 31.8507 15.1819 32.3484 15.4645L32.5072 15.5545L31.1275 17.9876V10.7741C31.1275 7.77462 28.6872 5.33429 25.6877 5.33429H25.2073V3.66258C25.2073 3.43506 25.0232 3.25089 24.7956 3.25089C24.568 3.25089 24.3839 3.43498 24.3839 3.66258V5.3342H19.2206V3.66258C19.2206 3.60851 19.21 3.55496 19.1893 3.505C19.1686 3.45504 19.1383 3.40965 19.1 3.37142C19.0618 3.33318 19.0164 3.30286 18.9665 3.28218C18.9165 3.2615 18.863 3.25086 18.8089 3.25089C18.7548 3.25086 18.7013 3.2615 18.6513 3.28218C18.6014 3.30286 18.556 3.33318 18.5177 3.37142C18.4795 3.40965 18.4492 3.45504 18.4285 3.505C18.4078 3.55496 18.3972 3.60851 18.3972 3.66258V5.3342H13.234V3.66258C13.234 3.60851 13.2234 3.55496 13.2027 3.505C13.182 3.45504 13.1517 3.40965 13.1135 3.37142C13.0752 3.33318 13.0298 3.30286 12.9799 3.28218C12.9299 3.2615 12.8764 3.25086 12.8223 3.25089C12.7682 3.25086 12.7147 3.2615 12.6647 3.28218C12.6148 3.30286 12.5694 3.33318 12.5312 3.37142C12.4929 3.40965 12.4626 3.45504 12.4419 3.505C12.4212 3.55496 12.4106 3.60851 12.4106 3.66258V5.3342H7.24752V3.66258C7.24754 3.60851 7.2369 3.55496 7.21622 3.505C7.19554 3.45504 7.16522 3.40965 7.12698 3.37142C7.08875 3.33318 7.04336 3.30286 6.9934 3.28218C6.94344 3.2615 6.88989 3.25086 6.83582 3.25089C6.78175 3.25086 6.72821 3.2615 6.67825 3.28218C6.62829 3.30286 6.5829 3.33318 6.54467 3.37142C6.50643 3.40965 6.47611 3.45504 6.45543 3.505C6.43474 3.55496 6.42411 3.60851 6.42413 3.66258V5.3342H5.94349C2.94416 5.3342 0.503906 7.77445 0.503906 10.774V34.4874C0.503906 37.4865 2.94424 39.9269 5.94349 39.9269ZM25.4279 33.5166L26.5973 34.1799L25.2852 35.1314L25.4279 33.5166ZM27.3298 33.6486L25.5074 32.6152L25.7775 29.5564L29.815 31.8458L27.3298 33.6486ZM30.4206 31.2416L28.562 30.1876L35.8009 17.4222L37.6598 18.4762L30.4206 31.2416ZM35.6606 11.6628L37.1617 9.01549C37.2351 8.88618 37.3569 8.79131 37.5002 8.75173C37.6435 8.71215 37.7967 8.73111 37.926 8.80444L41.387 10.7667C41.6557 10.9193 41.7515 11.2608 41.598 11.531L40.0965 14.1783L35.6606 11.6628ZM32.6735 14.4553L34.0862 11.964C34.1145 11.9145 34.1611 11.8782 34.2161 11.863C34.271 11.8478 34.3297 11.8549 34.3793 11.8828C41.1841 15.7417 29.5957 9.17061 40.5661 15.3912C40.616 15.4194 40.6518 15.4652 40.6671 15.5207C40.6747 15.5478 40.6768 15.5762 40.6733 15.6042C40.6697 15.6321 40.6607 15.6591 40.6466 15.6835L39.2335 18.1752C39.2054 18.2247 39.1588 18.2609 39.104 18.2761C39.0493 18.2912 38.9907 18.284 38.9412 18.256L38.4254 17.9635C38.425 17.9632 38.4246 17.9628 38.4243 17.9625L33.2715 15.041L33.2705 15.0407L32.7549 14.7483C32.7053 14.7202 32.6689 14.6736 32.6536 14.6187C32.6384 14.5637 32.6455 14.505 32.6735 14.4553ZM35.0846 17.0159L27.8458 29.7814L25.9848 28.726L33.2235 15.9607L35.0846 17.0159ZM1.32729 10.774C1.32729 8.22839 3.39809 6.15758 5.94357 6.15758H6.42422V8.30641C6.42419 8.36048 6.43483 8.41402 6.45551 8.46398C6.47619 8.51394 6.50652 8.55933 6.54475 8.59757C6.58298 8.6358 6.62838 8.66612 6.67833 8.68681C6.72829 8.70749 6.78184 8.71812 6.83591 8.7181C6.88998 8.71812 6.94352 8.70749 6.99348 8.68681C7.04344 8.66612 7.08883 8.6358 7.12707 8.59757C7.1653 8.55933 7.19562 8.51394 7.21631 8.46398C7.23699 8.41402 7.24762 8.36048 7.2476 8.30641V6.15758H12.4108V8.30641C12.4108 8.36048 12.4214 8.41402 12.4421 8.46398C12.4628 8.51394 12.4931 8.55933 12.5313 8.59757C12.5696 8.6358 12.6149 8.66612 12.6649 8.68681C12.7149 8.70749 12.7684 8.71812 12.8225 8.7181C12.8766 8.71812 12.9301 8.70749 12.9801 8.68681C13.03 8.66612 13.0754 8.6358 13.1136 8.59757C13.1519 8.55933 13.1822 8.51394 13.2029 8.46398C13.2236 8.41402 13.2342 8.36048 13.2342 8.30641V6.15758H18.3974V8.30641C18.3973 8.36048 18.408 8.41402 18.4287 8.46398C18.4493 8.51394 18.4797 8.55933 18.5179 8.59757C18.5561 8.6358 18.6015 8.66612 18.6515 8.68681C18.7014 8.70749 18.755 8.71812 18.8091 8.7181C18.8631 8.71812 18.9167 8.70749 18.9666 8.68681C19.0166 8.66612 19.062 8.6358 19.1002 8.59757C19.1384 8.55933 19.1688 8.51394 19.1895 8.46398C19.2101 8.41402 19.2208 8.36048 19.2207 8.30641V6.15758H24.3839V8.30641C24.3839 8.53392 24.568 8.7181 24.7956 8.7181C25.0232 8.7181 25.2073 8.53401 25.2073 8.30641V6.15758H25.6877C28.2334 6.15758 30.3042 8.22839 30.3042 10.774V13.9215H1.32729V10.774ZM1.32729 14.7448H30.304V19.4395L25.0648 28.679C25.0478 28.7092 25.0181 28.8095 25.015 28.8392C25.0105 28.8817 24.3881 35.918 24.3854 35.9593C24.3785 36.0379 24.3943 36.1169 24.431 36.1868C24.4677 36.2567 24.5238 36.3145 24.5924 36.3535C24.6611 36.3924 24.7395 36.4108 24.8183 36.4064C24.8972 36.402 24.9731 36.375 25.037 36.3287L30.3039 32.5081V34.4874C30.3039 37.0327 28.2331 39.1035 25.6875 39.1035H5.94349C3.39809 39.1035 1.32721 37.0327 1.32721 34.4874L1.32729 14.7448Z" fill="#342B72"/>
<path d="M5.94349 39.9269H25.6875C28.687 39.9269 31.1273 37.4866 31.1273 34.4874V31.6648L38.376 18.8823L38.5351 18.9725C39.0324 19.254 39.6667 19.08 39.9498 18.5813L41.3625 16.09C41.4303 15.9717 41.4738 15.841 41.4907 15.7057C41.5075 15.5703 41.4973 15.433 41.4606 15.3016C41.4247 15.17 41.363 15.0469 41.2792 14.9393C41.1953 14.8317 41.091 14.7418 40.9721 14.6749L40.813 14.5846L42.3145 11.9371C42.6909 11.2733 42.4569 10.427 41.7931 10.0503L38.3321 8.08805C37.6486 7.70189 36.8137 7.96039 36.4454 8.60951L34.9444 11.2568L34.7851 11.1664C34.2881 10.8842 33.653 11.0598 33.3704 11.5576L31.9572 14.0498C31.6754 14.547 31.8507 15.1819 32.3484 15.4645L32.5072 15.5545L31.1275 17.9876V10.7741C31.1275 7.77462 28.6872 5.33429 25.6877 5.33429H25.2073V3.66258C25.2073 3.43506 25.0232 3.25089 24.7956 3.25089C24.568 3.25089 24.3839 3.43498 24.3839 3.66258V5.3342H19.2206V3.66258C19.2206 3.60851 19.21 3.55496 19.1893 3.505C19.1686 3.45504 19.1383 3.40965 19.1 3.37142C19.0618 3.33318 19.0164 3.30286 18.9665 3.28218C18.9165 3.2615 18.863 3.25086 18.8089 3.25089C18.7548 3.25086 18.7013 3.2615 18.6513 3.28218C18.6014 3.30286 18.556 3.33318 18.5177 3.37142C18.4795 3.40965 18.4492 3.45504 18.4285 3.505C18.4078 3.55496 18.3972 3.60851 18.3972 3.66258V5.3342H13.234V3.66258C13.234 3.60851 13.2234 3.55496 13.2027 3.505C13.182 3.45504 13.1517 3.40965 13.1135 3.37142C13.0752 3.33318 13.0298 3.30286 12.9799 3.28218C12.9299 3.2615 12.8764 3.25086 12.8223 3.25089C12.7682 3.25086 12.7147 3.2615 12.6647 3.28218C12.6148 3.30286 12.5694 3.33318 12.5312 3.37142C12.4929 3.40965 12.4626 3.45504 12.4419 3.505C12.4212 3.55496 12.4106 3.60851 12.4106 3.66258V5.3342H7.24752V3.66258C7.24754 3.60851 7.2369 3.55496 7.21622 3.505C7.19554 3.45504 7.16522 3.40965 7.12698 3.37142C7.08875 3.33318 7.04336 3.30286 6.9934 3.28218C6.94344 3.2615 6.88989 3.25086 6.83582 3.25089C6.78175 3.25086 6.72821 3.2615 6.67825 3.28218C6.62829 3.30286 6.5829 3.33318 6.54467 3.37142C6.50643 3.40965 6.47611 3.45504 6.45543 3.505C6.43474 3.55496 6.42411 3.60851 6.42413 3.66258V5.3342H5.94349C2.94416 5.3342 0.503906 7.77445 0.503906 10.774V34.4874C0.503906 37.4865 2.94424 39.9269 5.94349 39.9269ZM25.4279 33.5166L26.5973 34.1799L25.2852 35.1314L25.4279 33.5166ZM27.3298 33.6486L25.5074 32.6152L25.7775 29.5564L29.815 31.8458L27.3298 33.6486ZM30.4206 31.2416L28.562 30.1876L35.8009 17.4222L37.6598 18.4762L30.4206 31.2416ZM35.6606 11.6628L37.1617 9.01549C37.2351 8.88618 37.3569 8.79131 37.5002 8.75173C37.6435 8.71215 37.7967 8.73111 37.926 8.80444L41.387 10.7667C41.6557 10.9193 41.7515 11.2608 41.598 11.531L40.0965 14.1783L35.6606 11.6628ZM32.6735 14.4553L34.0862 11.964C34.1145 11.9145 34.1611 11.8782 34.2161 11.863C34.271 11.8478 34.3297 11.8549 34.3793 11.8828C41.1841 15.7417 29.5957 9.17061 40.5661 15.3912C40.616 15.4194 40.6518 15.4652 40.6671 15.5207C40.6747 15.5478 40.6768 15.5762 40.6733 15.6042C40.6697 15.6321 40.6607 15.6591 40.6466 15.6835L39.2335 18.1752C39.2054 18.2247 39.1588 18.2609 39.104 18.2761C39.0493 18.2912 38.9907 18.284 38.9412 18.256L38.4254 17.9635C38.425 17.9632 38.4246 17.9628 38.4243 17.9625L33.2715 15.041L33.2705 15.0407L32.7549 14.7483C32.7053 14.7202 32.6689 14.6736 32.6536 14.6187C32.6384 14.5637 32.6455 14.505 32.6735 14.4553ZM35.0846 17.0159L27.8458 29.7814L25.9848 28.726L33.2235 15.9607L35.0846 17.0159ZM1.32729 10.774C1.32729 8.22839 3.39809 6.15758 5.94357 6.15758H6.42422V8.30641C6.42419 8.36048 6.43483 8.41402 6.45551 8.46398C6.47619 8.51394 6.50652 8.55933 6.54475 8.59757C6.58298 8.6358 6.62838 8.66612 6.67833 8.68681C6.72829 8.70749 6.78184 8.71812 6.83591 8.7181C6.88998 8.71812 6.94352 8.70749 6.99348 8.68681C7.04344 8.66612 7.08883 8.6358 7.12707 8.59757C7.1653 8.55933 7.19562 8.51394 7.21631 8.46398C7.23699 8.41402 7.24762 8.36048 7.2476 8.30641V6.15758H12.4108V8.30641C12.4108 8.36048 12.4214 8.41402 12.4421 8.46398C12.4628 8.51394 12.4931 8.55933 12.5313 8.59757C12.5696 8.6358 12.6149 8.66612 12.6649 8.68681C12.7149 8.70749 12.7684 8.71812 12.8225 8.7181C12.8766 8.71812 12.9301 8.70749 12.9801 8.68681C13.03 8.66612 13.0754 8.6358 13.1136 8.59757C13.1519 8.55933 13.1822 8.51394 13.2029 8.46398C13.2236 8.41402 13.2342 8.36048 13.2342 8.30641V6.15758H18.3974V8.30641C18.3973 8.36048 18.408 8.41402 18.4287 8.46398C18.4493 8.51394 18.4797 8.55933 18.5179 8.59757C18.5561 8.6358 18.6015 8.66612 18.6515 8.68681C18.7014 8.70749 18.755 8.71812 18.8091 8.7181C18.8631 8.71812 18.9167 8.70749 18.9666 8.68681C19.0166 8.66612 19.062 8.6358 19.1002 8.59757C19.1384 8.55933 19.1688 8.51394 19.1895 8.46398C19.2101 8.41402 19.2208 8.36048 19.2207 8.30641V6.15758H24.3839V8.30641C24.3839 8.53392 24.568 8.7181 24.7956 8.7181C25.0232 8.7181 25.2073 8.53401 25.2073 8.30641V6.15758H25.6877C28.2334 6.15758 30.3042 8.22839 30.3042 10.774V13.9215H1.32729V10.774ZM1.32729 14.7448H30.304V19.4395L25.0648 28.679C25.0478 28.7092 25.0181 28.8095 25.015 28.8392C25.0105 28.8817 24.3881 35.918 24.3854 35.9593C24.3785 36.0379 24.3943 36.1169 24.431 36.1868C24.4677 36.2567 24.5238 36.3145 24.5924 36.3535C24.6611 36.3924 24.7395 36.4108 24.8183 36.4064C24.8972 36.402 24.9731 36.375 25.037 36.3287L30.3039 32.5081V34.4874C30.3039 37.0327 28.2331 39.1035 25.6875 39.1035H5.94349C3.39809 39.1035 1.32721 37.0327 1.32721 34.4874L1.32729 14.7448Z" stroke="#342B72" stroke-width="0.8" mask="url(#path-1-outside-1_542_1604)"/>
<path d="M7.90583 19.5934H23.7292C24.0671 19.5934 24.3409 19.3198 24.3409 18.9817C24.3409 18.6437 24.0672 18.3701 23.7292 18.3701H7.90583C7.56811 18.3701 7.29414 18.6436 7.29414 18.9817C7.29414 19.3199 7.56811 19.5934 7.90583 19.5934ZM7.90583 27.5358H23.7292C24.0671 27.5358 24.3409 27.2622 24.3409 26.9241C24.3409 26.5861 24.0672 26.3125 23.7292 26.3125H7.90583C7.56811 26.3125 7.29414 26.586 7.29414 26.9241C7.29414 27.2623 7.56811 27.5358 7.90583 27.5358ZM7.90583 35.4782H19.6039C19.9419 35.4782 20.2156 35.2046 20.2156 34.8665C20.2156 34.5285 19.942 34.2549 19.6039 34.2549H7.90583C7.56811 34.2549 7.29414 34.5284 7.29414 34.8665C7.29414 35.2047 7.56811 35.4782 7.90583 35.4782Z" fill="#342B72" stroke="#342B72" stroke-width="0.4"/>
</svg>
