<svg width="22" height="22" viewBox="0 0 22 22" fill="none" xmlns="http://www.w3.org/2000/svg">
<path d="M13.7034 17.8216C13.7034 19.3701 12.7988 20.6252 11.2502 20.6252H5.4678C3.91925 20.6252 3.01465 19.3701 3.01465 17.8216" stroke="#A6A2C2" stroke-miterlimit="10" stroke-linecap="round"/>
<path d="M14.3171 14.3171C15.0911 14.3171 15.7189 15.1016 15.7189 16.0693C15.7189 17.037 15.0911 17.8216 14.3171 17.8216H2.4018C1.62774 17.8216 1 17.037 1 16.0693C1 15.1016 1.62774 14.3171 2.4018 14.3171" stroke="#A6A2C2" stroke-miterlimit="10" stroke-linecap="round"/>
<path d="M14.6675 14.3171H7.45309C7.36027 14.3171 7.27126 14.354 7.20559 14.4196L6.03027 15.5949C6.01399 15.6112 5.99467 15.6241 5.9734 15.6329C5.95212 15.6418 5.92932 15.6463 5.90629 15.6463C5.88327 15.6463 5.86047 15.6418 5.83919 15.6329C5.81792 15.6241 5.7986 15.6112 5.78232 15.5949L4.607 14.4196C4.54133 14.354 4.45232 14.3171 4.3595 14.3171H2.05135C1.77251 14.3171 1.5051 14.2063 1.30793 14.0092C1.11077 13.812 1 13.5446 1 13.2657C1 12.9869 1.11077 12.7195 1.30793 12.5223C1.5051 12.3252 1.77251 12.2144 2.05135 12.2144H14.6675C14.9464 12.2144 15.2138 12.3252 15.411 12.5223C15.6081 12.7195 15.7189 12.9869 15.7189 13.2657C15.7189 13.5446 15.6081 13.812 15.411 14.0092C15.2138 14.2063 14.9464 14.3171 14.6675 14.3171Z" stroke="#A6A2C2" stroke-miterlimit="10" stroke-linecap="round"/>
<path d="M2.40137 11.6887V11.6791C2.40137 9.26973 4.37265 8.00899 6.78199 8.00899H9.93603C12.3454 8.00899 14.3167 9.27937 14.3167 11.6887V11.6791" stroke="#A6A2C2" stroke-miterlimit="10" stroke-linecap="round"/>
<path d="M10.1553 4.5045L10.4812 7.30678" stroke="#A6A2C2" stroke-miterlimit="10" stroke-linecap="round"/>
<path d="M10.8125 20.6252H16.9151C17.2688 20.6252 17.6094 20.4915 17.8686 20.2509C18.1278 20.0104 18.2866 19.6807 18.313 19.3281L19.8804 4.5045" stroke="#A6A2C2" stroke-miterlimit="10" stroke-linecap="round"/>
<path d="M15.7188 4.5045L16.4196 1.7009L18.4785 1" stroke="#A6A2C2" stroke-linecap="round" stroke-linejoin="round"/>
<path d="M9.41113 4.5045H20.6255" stroke="#A6A2C2" stroke-miterlimit="10" stroke-linecap="round"/>
</svg>
