<svg width="9" height="9" viewBox="0 0 9 9" fill="none" xmlns="http://www.w3.org/2000/svg">
<g clip-path="url(#clip0_280_3388)">
<path d="M3.63506 0.137939C2.63686 0.137939 1.81753 0.957383 1.81753 1.9551C1.81753 2.49338 2.05631 2.97951 2.43271 3.31333C1.01168 3.83945 0 5.269 0 6.92351C9.14094e-06 7.05202 0.0510915 7.17526 0.142012 7.26612C0.232932 7.35699 0.356244 7.40804 0.484826 7.40805H2.817C2.91233 7.05591 3.06498 6.7283 3.26618 6.439H1.00802C1.22244 5.07783 2.32473 4.06641 3.63506 4.06641C3.81666 4.06641 3.99403 4.08649 4.16583 4.12358C4.22483 3.53153 4.64458 3.04056 5.19998 2.8744C5.36022 2.60415 5.45259 2.28972 5.45259 1.9551C5.45259 0.957383 4.63325 0.137939 3.63506 0.137939ZM3.63506 1.10699C4.10892 1.10699 4.48293 1.4808 4.48293 1.9551C4.48293 2.4294 4.10892 2.80326 3.63506 2.80326C3.16119 2.80326 2.78715 2.4294 2.78715 1.9551C2.78715 1.4808 3.16119 1.10699 3.63506 1.10699Z" fill="#342B72"/>
<path d="M5.81625 3.04578C5.01769 3.04578 4.36223 3.70134 4.36223 4.49952C4.36223 4.93014 4.55324 5.31904 4.85436 5.58609C3.71753 6.00699 2.9082 7.15063 2.9082 8.47424C2.90821 8.57704 2.94908 8.67563 3.02181 8.74832C3.09455 8.82101 3.19319 8.86186 3.29606 8.86187H5.81625H8.33642C8.43929 8.86186 8.53794 8.82102 8.61068 8.74833C8.68342 8.67564 8.72428 8.57705 8.72429 8.47424C8.72429 7.15063 7.91498 6.00699 6.77816 5.58609C7.07927 5.31904 7.27027 4.93014 7.27027 4.49952C7.27027 3.70134 6.61481 3.04578 5.81625 3.04578ZM5.81625 3.82103C6.19534 3.82103 6.49455 4.12008 6.49455 4.49952C6.49455 4.87895 6.19534 5.17804 5.81625 5.17804C5.43715 5.17804 5.13793 4.87895 5.13793 4.49952C5.13793 4.12008 5.43715 3.82103 5.81625 3.82103ZM5.81625 6.18855C6.86451 6.18855 7.74634 6.99768 7.91788 8.08662H5.81625H3.71462C3.88616 6.99768 4.76799 6.18855 5.81625 6.18855Z" fill="#342B72"/>
</g>
<defs>
<clipPath id="clip0_280_3388">
<rect width="8.72414" height="8.72414" fill="white" transform="translate(0 0.137939)"/>
</clipPath>
</defs>
</svg>
