<svg width="40" height="40" viewBox="0 0 40 40" fill="none" xmlns="http://www.w3.org/2000/svg">
<g clip-path="url(#clip0_542_1636)">
<path d="M0.625 39.375V14.375L20 28.125L39.375 14.375" stroke="#342B72" stroke-width="1.8" stroke-linejoin="round"/>
<path d="M15.625 24.375L0.625 39.375H26.25M5.625 18.125V5.625L10.625 0.625H34.375V18.125M0.625 14.375L5.625 9.375M34.375 9.375L39.375 14.375V26.25" stroke="#342B72" stroke-width="1.8" stroke-linejoin="round"/>
<path d="M10.625 9.375H29.375M10.625 12.5H29.375M10.625 15.625H29.375M5.625 5.625H10.625V0.625L5.625 5.625Z" stroke="#342B72" stroke-width="1.8" stroke-linejoin="round"/>
<path d="M31.875 39.375C36.0171 39.375 39.375 36.0171 39.375 31.875C39.375 27.7329 36.0171 24.375 31.875 24.375C27.7329 24.375 24.375 27.7329 24.375 31.875C24.375 36.0171 27.7329 39.375 31.875 39.375Z" stroke="#342B72" stroke-width="1.8" stroke-linejoin="round"/>
<path d="M34.375 30V29.375C34.375 29.0435 34.2433 28.7255 34.0089 28.4911C33.7745 28.2567 33.4565 28.125 33.125 28.125H30.625C30.2935 28.125 29.9755 28.2567 29.7411 28.4911C29.5067 28.7255 29.375 29.0435 29.375 29.375V30.625C29.375 30.9565 29.5067 31.2745 29.7411 31.5089C29.9755 31.7433 30.2935 31.875 30.625 31.875H33.125C33.4565 31.875 33.7745 32.0067 34.0089 32.2411C34.2433 32.4755 34.375 32.7935 34.375 33.125V34.375C34.375 34.7065 34.2433 35.0245 34.0089 35.2589C33.7745 35.4933 33.4565 35.625 33.125 35.625H30.625C30.2935 35.625 29.9755 35.4933 29.7411 35.2589C29.5067 35.0245 29.375 34.7065 29.375 34.375V33.75M31.875 28.125V26.875M31.875 36.875V35.625" stroke="#342B72" stroke-width="1.8" stroke-linejoin="round"/>
</g>
<defs>
<clipPath id="clip0_542_1636">
<rect width="40" height="40" fill="white"/>
</clipPath>
</defs>
</svg>
