<svg width="41" height="41" viewBox="0 0 41 41" fill="none" xmlns="http://www.w3.org/2000/svg">
<path d="M10.0638 2.26006L9.99313 2.33077C9.66584 2.00346 9.66584 1.47279 9.99313 1.14548L10.0637 1.21602L9.99313 1.14548C10.3204 0.818173 10.8511 0.818172 11.1784 1.14548L15.3063 5.2734C16.5957 6.56273 17.4806 8.13629 17.8639 9.8246C18.189 11.2566 18.1202 12.7018 17.6726 13.9627L21.2616 17.0922L23.9027 14.7993C23.4266 13.586 23.2965 12.2146 23.537 10.8695C23.8253 9.25672 24.6056 7.77696 25.7923 6.59028L27.6882 4.69438C28.4562 3.92629 29.3467 3.32871 30.3347 2.91865C31.2921 2.5213 32.291 2.31959 33.3036 2.31959C35.1628 2.31959 36.8821 3.01255 38.1425 4.27305C38.8242 4.95467 39.339 5.76417 39.6726 6.67842C39.9924 7.55464 40.132 8.48778 40.0882 9.45139C39.9989 11.4174 39.1576 13.291 37.7212 14.7274L35.8253 16.6234L35.7546 16.5526L35.8253 16.6234C35.0573 17.3914 34.1669 17.9889 33.179 18.3989C32.2218 18.7962 31.2229 18.9978 30.2106 18.9978H30.2106H30.2105H30.2105H30.2105H30.2105H30.2105H30.2105H30.2104H30.2104H30.2104H30.2104H30.2104H30.2104H30.2104H30.2103C29.3119 18.9978 28.4271 18.8316 27.6163 18.5132L25.5805 20.8582L38.3805 32.0198L38.3926 32.0304L38.3927 32.0306L38.3254 32.1045L10.0638 2.26006ZM10.0638 2.26006L9.99313 2.33077L14.121 6.45869C16.2452 8.5828 16.9694 11.6201 15.9122 13.8389C15.7504 14.1783 15.8346 14.5839 16.118 14.8311L19.9835 18.2018L18.0852 19.8498L14.8311 16.118C14.584 15.8346 14.1783 15.7504 13.8389 15.9122C11.6202 16.9694 8.58281 16.2453 6.45867 14.1212L2.33076 9.99323C2.00347 9.66592 1.47278 9.66592 1.14548 9.99322C0.818174 10.3205 0.818175 10.8512 1.14547 11.1785L5.27339 15.3065C6.56273 16.5958 8.13629 17.4807 9.82459 17.864C11.2566 18.1891 12.7018 18.1202 13.9627 17.6726L16.8194 20.9488L3.82478 32.2302L3.8147 32.2391L3.81461 32.2392M10.0638 2.26006L3.81461 32.2392M3.81461 32.2392C2.8855 33.0726 2.35452 34.2082 2.32119 35.4359C2.28787 36.6636 2.75643 37.8263 3.63897 38.7088L3.70702 38.7768C4.5573 39.6271 5.67728 40.0961 6.86021 40.0961C8.1161 40.0961 9.32457 39.5508 10.1764 38.601L3.81461 32.2392ZM38.7119 38.7798L38.7827 38.8505L38.8506 38.7826C38.8506 38.7826 38.8506 38.7826 38.8506 38.7825L38.7119 38.7798ZM4.89223 37.5914L4.89221 37.5914L4.82415 37.5234C4.26917 36.9684 3.97613 36.2435 3.99682 35.4814C4.01745 34.7214 4.34767 34.0151 4.92903 33.4914C4.92926 33.4912 4.92948 33.491 4.92971 33.4908L18.5481 21.6678C18.5481 21.6678 18.5481 21.6677 18.5482 21.6677C18.5484 21.6676 18.5486 21.6673 18.549 21.667L18.554 21.6628L18.5541 21.6628L18.5575 21.6596L18.558 21.6592L18.5585 21.6587L18.5589 21.6583L18.559 21.6583L25.472 15.6567C25.7636 15.4035 25.8445 14.9838 25.6678 14.6404C24.5593 12.4859 25.0916 9.66143 26.9775 7.77557L28.8734 5.87965C30.0714 4.68164 31.6868 3.99583 33.3036 3.99583C34.7185 3.99583 36.0152 4.51627 36.9573 5.45832C39.063 7.56415 38.8877 11.1903 36.5359 13.5421L34.64 15.4381C33.4422 16.6359 31.8269 17.3216 30.2104 17.3216C29.3459 17.3216 28.5039 17.1228 27.7753 16.748C27.4319 16.5713 27.0122 16.6522 26.759 16.9438L8.92503 37.4858C8.92484 37.486 8.92464 37.4862 8.92444 37.4864C8.38148 38.0893 7.64899 38.4198 6.86021 38.4198C6.12596 38.4198 5.42717 38.1264 4.89223 37.5914ZM37.6652 37.5974L37.6651 37.5975L37.5972 37.6654C37.5972 37.6654 37.5972 37.6654 37.5972 37.6654C37.0937 38.1689 36.4095 38.4371 35.6678 38.4189C34.7945 38.3974 33.9228 37.9815 33.2775 37.2725C33.2773 37.2722 33.277 37.272 33.2768 37.2717L22.2797 24.6601L24.4815 22.124L37.2717 33.2769C37.272 33.2771 37.2723 33.2774 37.2725 33.2776C37.9816 33.9229 38.3974 34.7946 38.4189 35.6679C38.4371 36.4094 38.1688 37.0938 37.6652 37.5974Z" fill="#342B72" stroke="#ABA6C9" stroke-width="0.2"/>
<path d="M12.021 10.3051C12.1907 10.4748 12.4133 10.5597 12.6356 10.5597C12.8579 10.5597 13.0805 10.4748 13.2502 10.3051C13.5897 9.96561 13.5897 9.41525 13.2502 9.0758L7.10166 2.92722C6.76221 2.58777 6.21184 2.58777 5.87239 2.92722C5.53293 3.26667 5.53294 3.81703 5.87239 4.15649L12.021 10.3051ZM2.92412 5.87554L2.99483 5.94625L2.92412 5.87554C2.58468 6.21499 2.58466 6.76535 2.92412 7.10481L9.07263 13.2533C9.24234 13.423 9.46496 13.5079 9.68726 13.5079C9.90957 13.5079 10.1322 13.423 10.3019 13.2533C10.6413 12.9139 10.6413 12.3635 10.3019 12.0241L4.15339 5.87554C3.81394 5.53609 3.26357 5.53609 2.92412 5.87554Z" fill="#342B72" stroke="#ABA6C9" stroke-width="0.2"/>
</svg>
