<svg width="46" height="46" viewBox="0 0 46 46" fill="none" xmlns="http://www.w3.org/2000/svg">
<path fill-rule="evenodd" clip-rule="evenodd" d="M23 4.79168C25.4889 4.78834 27.9518 5.29689 30.2358 6.28573C32.5198 7.27457 34.5761 8.72258 36.2767 10.5398H32.5833C32.3292 10.5398 32.0854 10.6407 31.9057 10.8205C31.726 11.0002 31.625 11.2439 31.625 11.4981C31.625 11.7523 31.726 11.996 31.9057 12.1757C32.0854 12.3555 32.3292 12.4564 32.5833 12.4564H38.3333C38.5875 12.4564 38.8313 12.3555 39.011 12.1757C39.1907 11.996 39.2917 11.7523 39.2917 11.4981V5.75001C39.2917 5.49585 39.1907 5.25209 39.011 5.07237C38.8313 4.89265 38.5875 4.79168 38.3333 4.79168C38.0792 4.79168 37.8354 4.89265 37.6557 5.07237C37.476 5.25209 37.375 5.49585 37.375 5.75001V8.91635C35.5032 7.00114 33.2671 5.47994 30.7983 4.44239C28.3295 3.40483 25.678 2.87191 23 2.87501C11.8853 2.87501 2.875 11.8853 2.875 23C2.875 25.4763 3.3235 27.8492 4.14192 30.0438C4.18596 30.1617 4.25281 30.2698 4.33863 30.3619C4.42445 30.454 4.52757 30.5282 4.6421 30.5805C4.75663 30.6327 4.88032 30.6619 5.00613 30.6663C5.13193 30.6707 5.25737 30.6504 5.37529 30.6063C5.49321 30.5623 5.6013 30.4954 5.69339 30.4096C5.78548 30.3238 5.85977 30.2207 5.912 30.1061C5.96424 29.9916 5.99341 29.8679 5.99784 29.7421C6.00227 29.6163 5.98188 29.4909 5.93783 29.3729C5.17809 27.3342 4.7899 25.1757 4.79167 23C4.79167 18.1709 6.71004 13.5395 10.1248 10.1248C13.5395 6.71005 18.1708 4.79168 23 4.79168ZM40.6237 15.3947C40.386 15.4838 40.1933 15.6636 40.088 15.8947C39.9827 16.1258 39.9734 16.3892 40.0622 16.6271C40.8219 18.6659 41.2101 20.8243 41.2083 23C41.2082 26.6504 40.1109 30.2165 38.0588 33.2355C36.0067 36.2544 33.0946 38.5869 29.7003 39.9302C26.3061 41.2735 22.5865 41.5655 19.0242 40.7684C15.4619 39.9714 12.2214 38.122 9.72325 35.4603H13.4167C13.6708 35.4603 13.9146 35.3593 14.0943 35.1796C14.274 34.9999 14.375 34.7561 14.375 34.5019C14.375 34.2478 14.274 34.004 14.0943 33.8243C13.9146 33.6446 13.6708 33.5436 13.4167 33.5436H7.66667C7.4125 33.5436 7.16875 33.6446 6.98902 33.8243C6.8093 34.004 6.70833 34.2478 6.70833 34.5019V40.25C6.70833 40.5042 6.8093 40.7479 6.98902 40.9277C7.16875 41.1074 7.4125 41.2084 7.66667 41.2084C7.92083 41.2084 8.16459 41.1074 8.34431 40.9277C8.52403 40.7479 8.625 40.5042 8.625 40.25V37.0837C10.4968 38.9989 12.7329 40.5201 15.2017 41.5576C17.6705 42.5952 20.322 43.1281 23 43.125C34.1147 43.125 43.125 34.1148 43.125 23C43.125 20.5237 42.6765 18.1508 41.8581 15.9563C41.814 15.8383 41.747 15.7302 41.6611 15.6381C41.5752 15.546 41.472 15.4718 41.3573 15.4196C41.2427 15.3675 41.1189 15.3384 40.993 15.3341C40.8671 15.3299 40.7417 15.3504 40.6237 15.3947Z" fill="#342B72"/>
<path fill-rule="evenodd" clip-rule="evenodd" d="M23.0007 14.375C20.7132 14.375 18.5194 15.2837 16.9019 16.9012C15.2844 18.5187 14.3757 20.7125 14.3757 23C14.3757 25.2875 15.2844 27.4813 16.9019 29.0988C18.5194 30.7163 20.7132 31.625 23.0007 31.625C25.2881 31.625 27.4819 30.7163 29.0994 29.0988C30.7169 27.4813 31.6257 25.2875 31.6257 23C31.6257 20.7125 30.7169 18.5187 29.0994 16.9012C27.4819 15.2837 25.2881 14.375 23.0007 14.375ZM12.459 23C12.459 20.2042 13.5696 17.5229 15.5466 15.5459C17.5235 13.569 20.2048 12.4583 23.0007 12.4583C25.7965 12.4583 28.4778 13.569 30.4547 15.5459C32.4317 17.5229 33.5423 20.2042 33.5423 23C33.5423 25.7958 32.4317 28.4771 30.4547 30.4541C28.4778 32.431 25.7965 33.5417 23.0007 33.5417C20.2048 33.5417 17.5235 32.431 15.5466 30.4541C13.5696 28.4771 12.459 25.7958 12.459 23Z" fill="#342B72"/>
<path fill-rule="evenodd" clip-rule="evenodd" d="M23.9577 18.2083V17.25H22.041V18.2083C21.2785 18.2083 20.5473 18.5112 20.0081 19.0504C19.4689 19.5896 19.166 20.3208 19.166 21.0833C19.166 21.8458 19.4689 22.5771 20.0081 23.1163C20.5473 23.6554 21.2785 23.9583 22.041 23.9583H23.9577C24.2118 23.9583 24.4556 24.0593 24.6353 24.239C24.815 24.4187 24.916 24.6625 24.916 24.9167C24.916 25.1708 24.815 25.4146 24.6353 25.5943C24.4556 25.774 24.2118 25.875 23.9577 25.875H20.1243V27.7917H22.041V28.75H23.9577V27.7917C24.7202 27.7917 25.4514 27.4888 25.9906 26.9496C26.5298 26.4104 26.8327 25.6792 26.8327 24.9167C26.8327 24.1542 26.5298 23.4229 25.9906 22.8837C25.4514 22.3446 24.7202 22.0417 23.9577 22.0417H22.041C21.7868 22.0417 21.5431 21.9407 21.3634 21.761C21.1836 21.5813 21.0827 21.3375 21.0827 21.0833C21.0827 20.8292 21.1836 20.5854 21.3634 20.4057C21.5431 20.226 21.7868 20.125 22.041 20.125H25.8743V18.2083H23.9577Z" fill="#342B72"/>
</svg>
