<svg width="10" height="11" viewBox="0 0 10 11" fill="none" xmlns="http://www.w3.org/2000/svg">
<path d="M10 9.91162L7.39431 7.30593C8.07117 6.47811 8.40395 5.42181 8.32384 4.35551C8.24372 3.28921 7.75683 2.2945 6.96388 1.57712C6.17092 0.859737 5.13257 0.474576 4.0636 0.501304C2.99463 0.528031 1.97683 0.964602 1.22071 1.72071C0.464602 2.47683 0.0280311 3.49463 0.00130351 4.5636C-0.0254241 5.63257 0.359737 6.67092 1.07712 7.46388C1.7945 8.25683 2.78921 8.74372 3.85551 8.82384C4.92181 8.90395 5.97811 8.57117 6.80593 7.89431L9.41162 10.5L10 9.91162ZM4.17444 8.00333C3.51604 8.00333 2.87244 7.80809 2.325 7.44231C1.77757 7.07653 1.3509 6.55662 1.09894 5.94835C0.846983 5.34007 0.78106 4.67074 0.909506 4.025C1.03795 3.37926 1.355 2.78611 1.82055 2.32055C2.28611 1.855 2.87926 1.53795 3.525 1.40951C4.17074 1.28106 4.84007 1.34698 5.44835 1.59894C6.05662 1.8509 6.57653 2.27757 6.94231 2.825C7.30809 3.37244 7.50333 4.01604 7.50333 4.67444C7.50234 5.55701 7.1513 6.40315 6.52722 7.02722C5.90315 7.6513 5.05701 8.00234 4.17444 8.00333Z" fill="#A6A2C2"/>
</svg>
