<svg width="45" height="42" viewBox="0 0 45 42" fill="none" xmlns="http://www.w3.org/2000/svg">
<path fill-rule="evenodd" clip-rule="evenodd" d="M31.0442 21.336C30.8797 21.1734 30.6521 21.0727 30.4008 21.0727C30.1494 21.0727 29.9219 21.1733 29.7574 21.336C29.5928 21.4986 29.491 21.7234 29.491 21.9717C29.491 22.22 29.5928 22.4449 29.7574 22.6074C29.9219 22.77 30.1494 22.8706 30.4008 22.8706C30.6521 22.8706 30.8797 22.77 31.0442 22.6074C31.2087 22.4449 31.3105 22.22 31.3105 21.9717C31.3105 21.7234 31.2087 21.4985 31.0442 21.336ZM30.4008 19.3209C31.1415 19.3209 31.8122 19.6176 32.2977 20.0974C32.7832 20.5771 33.0836 21.2398 33.0836 21.9717C33.0836 22.7036 32.7833 23.3662 32.2977 23.846C31.8122 24.3257 31.1415 24.6225 30.4008 24.6225C29.6601 24.6225 28.9894 24.3258 28.5038 23.846C28.0183 23.3662 27.7179 22.7036 27.7179 21.9717C27.7179 21.2398 28.0182 20.5771 28.5038 20.0974C28.9894 19.6177 29.6601 19.3209 30.4008 19.3209ZM37.1136 28.1723C36.949 28.0097 36.7215 27.9091 36.4702 27.9091C36.2188 27.9091 35.9913 28.0097 35.8268 28.1723C35.6622 28.3349 35.5604 28.5597 35.5604 28.808C35.5604 29.0564 35.6622 29.2812 35.8268 29.4437C35.9913 29.6063 36.2188 29.7069 36.4702 29.7069C36.7215 29.7069 36.949 29.6063 37.1136 29.4437C37.2781 29.2812 37.38 29.0564 37.38 28.808C37.38 28.5597 37.2782 28.3349 37.1137 28.1723H37.1136ZM36.4702 26.1573C37.2109 26.1573 37.8816 26.4541 38.3671 26.9337C38.8526 27.4135 39.1529 28.0761 39.1529 28.808C39.1529 29.5399 38.8526 30.2026 38.367 30.6823C37.8815 31.162 37.2108 31.4588 36.4701 31.4588C35.7293 31.4588 35.0587 31.1621 34.5731 30.6823C34.0876 30.2026 33.7872 29.5399 33.7872 28.808C33.7872 28.0761 34.0875 27.4135 34.573 26.9337C35.0586 26.454 35.7293 26.1573 36.47 26.1573H36.4702ZM30.1631 29.9103C29.817 30.2523 29.2557 30.2523 28.9096 29.9103C28.5635 29.5683 28.5635 29.0138 28.9096 28.6718L36.4995 21.1727C36.8456 20.8307 37.4069 20.8307 37.753 21.1727C38.0992 21.5147 38.0992 22.0692 37.753 22.4112L30.1631 29.9103ZM7.69369 20.1049C7.69369 19.6212 8.09063 19.229 8.58019 19.229C9.06975 19.229 9.46669 19.6212 9.46669 20.1049C9.46669 20.4798 9.62044 20.8192 9.86897 21.0647C10.1175 21.3103 10.4609 21.4621 10.8402 21.4622H10.8404C11.2173 21.4622 11.5565 21.3117 11.8029 21.0683C12.056 20.8183 12.2132 20.4749 12.2176 20.0981C12.2277 19.2245 11.4496 18.9962 10.6563 18.7637C9.21591 18.3414 7.74759 17.911 7.69725 15.6556C7.69453 15.5341 7.69322 15.6644 7.69322 15.5906C7.69322 14.7515 8.04441 13.9936 8.60784 13.441C8.97703 13.0788 9.43913 12.8058 9.95381 12.6576V11.7859C9.95381 11.3022 10.3507 10.91 10.8403 10.91C11.3299 10.91 11.7268 11.3022 11.7268 11.7859V12.6544C12.2393 12.8027 12.6977 13.0766 13.0654 13.44C13.6348 14.0026 13.9871 14.7799 13.9871 15.6384C13.9871 16.1221 13.5902 16.5143 13.1006 16.5143C12.6111 16.5143 12.2141 16.1221 12.2141 15.6384C12.2141 15.2635 12.0604 14.9241 11.8118 14.6785C11.5633 14.433 11.2198 14.281 10.8404 14.281H10.8402C10.8053 14.281 10.7963 14.2806 10.7986 14.28L10.7803 14.279C10.422 14.2935 10.0945 14.4439 9.85434 14.6794C9.61519 14.914 9.46613 15.2353 9.46613 15.5905C9.46613 15.6961 9.46116 15.5318 9.46322 15.6213C9.48506 16.5975 10.328 16.8447 11.1548 17.0871C12.5957 17.5095 14.009 17.9239 13.9836 20.1117C13.9735 20.9717 13.6219 21.7479 13.0564 22.3067C12.6906 22.6682 12.236 22.9406 11.7267 23.0886V23.9573C11.7267 24.441 11.3298 24.8332 10.8402 24.8332C10.3507 24.8332 9.95372 24.441 9.95372 23.9573V23.0888C9.44138 22.9403 8.98313 22.6666 8.61544 22.3033C8.04591 21.7407 7.69369 20.9633 7.69369 20.1049ZM40.3592 18.5488C42.131 20.2994 43.2269 22.7181 43.2269 25.3899C43.2269 28.0616 42.131 30.4802 40.3592 32.2309C38.5874 33.9815 36.1395 35.0644 33.4355 35.0644C30.7314 35.0644 28.2836 33.9815 26.5117 32.2309C24.74 30.4803 23.644 28.0615 23.644 25.3899C23.644 22.7182 24.74 20.2995 26.5117 18.5488C28.2835 16.7982 30.7314 15.7153 33.4355 15.7153C36.1395 15.7153 38.5874 16.7982 40.3592 18.5488ZM32.8286 36.8007V40.3828C32.8286 40.8283 32.6446 41.2329 32.3484 41.5255C32.0521 41.8183 31.6427 42 31.1917 42H1.77891C1.28841 42 0.843563 41.8027 0.521625 41.4846C0.199688 41.1665 0 40.7269 0 40.2422V7.41999H0.00253129C0.00253129 7.20045 0.0856876 6.98073 0.25275 6.81094C0.57 6.48914 1.20966 5.82804 1.96125 5.05124C4.00931 2.93463 6.84891 0 7.33144 0H31.1919C31.643 0 32.0524 0.181649 32.3486 0.474361C32.6449 0.767074 32.8287 1.17159 32.8287 1.61714V13.979C33.0297 13.9687 33.2319 13.9634 33.4356 13.9634C36.6289 13.9634 39.52 15.2424 41.6128 17.3102C43.7056 19.3779 45 22.2346 45 25.3898C45 28.5449 43.7056 31.4016 41.6128 33.4694C39.52 35.5372 36.629 36.8161 33.4356 36.8161C33.232 36.8161 33.0297 36.8108 32.8287 36.8006L32.8286 36.8007ZM8.35434 1.75183H31.0556V14.2059C28.8172 14.6686 26.8163 15.7707 25.2582 17.3102C23.1654 19.378 21.871 22.2347 21.871 25.3899C21.871 28.545 23.1654 31.4017 25.2582 33.4695C26.8163 35.0091 28.8172 36.1112 31.0556 36.5739V40.2482H1.77891C1.77778 40.2482 1.77647 40.2473 1.77506 40.246C1.77375 40.2447 1.77291 40.2434 1.77291 40.2422V8.25468H6.71756C7.1685 8.25468 7.57791 8.07294 7.87416 7.78023C8.17031 7.48751 8.35434 7.083 8.35434 6.63744V1.75183ZM3.00328 6.50285H6.58134V2.47324C5.77744 3.38389 4.47188 4.98501 3.24244 6.25562L3.00328 6.50285ZM6.33684 29.4612H19.1579C19.6475 29.4612 20.0444 29.069 20.0444 28.5852C20.0444 28.1015 19.6475 27.7093 19.1579 27.7093H6.33684C5.84728 27.7093 5.45034 28.1015 5.45034 28.5852C5.45034 29.069 5.84728 29.4612 6.33684 29.4612ZM6.33684 34.8737H21.1393C21.6289 34.8737 22.0258 34.4815 22.0258 33.9978C22.0258 33.5141 21.6289 33.1219 21.1393 33.1219H6.33684C5.84728 33.1219 5.45034 33.5141 5.45034 33.9978C5.45034 34.4815 5.84728 34.8737 6.33684 34.8737Z" fill="#342B72"/>
</svg>
