<svg width="32" height="36" viewBox="0 0 32 36" fill="none" xmlns="http://www.w3.org/2000/svg">
<g clip-path="url(#clip0_542_1655)">
<path d="M1.59961 8.18181H30.3996M27.1996 8.18181V31.0909C27.1996 31.9589 26.8625 32.7913 26.2623 33.4051C25.6622 34.0188 24.8483 34.3636 23.9996 34.3636H7.99961C7.15092 34.3636 6.33698 34.0188 5.73687 33.4051C5.13675 32.7913 4.79961 31.9589 4.79961 31.0909V8.18181M9.59961 8.18181V4.90908C9.59961 4.0411 9.93675 3.20867 10.5369 2.59491C11.137 1.98116 11.9509 1.63635 12.7996 1.63635H19.1996C20.0483 1.63635 20.8622 1.98116 21.4623 2.59491C22.0625 3.20867 22.3996 4.0411 22.3996 4.90908V8.18181M12.7996 16.3636V26.1818M19.1996 16.3636V26.1818" stroke="#921B09" stroke-width="2.3" stroke-linecap="round" stroke-linejoin="round"/>
</g>
<defs>
<clipPath id="clip0_542_1655">
<rect width="32" height="36" fill="white"/>
</clipPath>
</defs>
</svg>
